<?xml version="1.0" encoding="utf-8"?>
<!DOCTYPE svg PUBLIC "-//W3C//DTD SVG 1.1//EN" "http://www.w3.org/Graphics/SVG/1.1/DTD/svg11.dtd">
<svg version="1.1" id="Layer_1" xmlns="http://www.w3.org/2000/svg" xmlns:xlink="http://www.w3.org/1999/xlink" x="0px" y="0px"
	 width="36pt" height="36pt" viewBox="0 0 38 38" enable-background="new 0 0 38 38" xml:space="preserve">
<g>
	<path fill="#ff7f08" d="M28.604,30.439c-0.698-1.172-1.344-2.976-1.939-5.412c-3.181,4.966-6.538,7.449-10.072,7.449
		c-2.771,0-4.957-1.218-6.556-3.655c-1.6-2.437-2.399-5.319-2.399-8.649c0-4.222,1.064-7.774,3.194-10.657
		c2.129-2.882,4.859-4.324,8.188-4.324c4.259,0,7.049,3.367,8.37,10.1h0.056c0.502-1.6,0.92-3.083,1.255-4.45
		c0.254-1.04,0.509-2.12,0.763-3.24C26.71,5.071,23.036,3.525,19,3.525C10.454,3.525,3.525,10.454,3.525,19S10.454,34.475,19,34.475
		c3.767,0,7.219-1.347,9.902-3.583C28.8,30.751,28.701,30.602,28.604,30.439z"/>
	<path fill="#ff7f08" d="M33.01,12.423c-0.146,0.349-0.294,0.696-0.444,1.04c-0.549,1.256-1.126,2.521-1.73,3.794
		c-0.604,1.274-1.27,2.608-1.995,4.003c0.668,2.802,1.699,4.882,3.088,6.243c1.608-2.44,2.545-5.362,2.545-8.503
		C34.475,16.648,33.95,14.419,33.01,12.423z"/>
	<path fill="#ff7f08" d="M19.097,8.232c-1.807,0-3.215,0.986-4.225,2.957c-1.01,1.972-1.515,4.511-1.515,7.617
		c0,3.125,0.456,5.547,1.369,7.268c0.912,1.721,2.165,2.581,3.76,2.581c1.205,0,2.4-0.721,3.586-2.162
		c1.187-1.441,2.374-3.594,3.561-6.458c-0.674-3.943-1.563-6.896-2.67-8.857C21.855,9.213,20.567,8.232,19.097,8.232z"/>
</g>
</svg>
